<svg width="16" height="16" viewBox="0 0 16 16" fill="none" xmlns="http://www.w3.org/2000/svg">
<path d="M8 16C5.87827 16 3.84343 15.1571 2.34314 13.6569C0.842849 12.1566 0 10.1217 0 8C0 5.87827 0.842849 3.84344 2.34314 2.34315C3.84343 0.842854 5.87827 0 8 0C10.1217 0 12.1566 0.842854 13.6569 2.34315C15.1572 3.84344 16 5.87827 16 8C16 10.1217 15.1572 12.1566 13.6569 13.6569C12.1566 15.1571 10.1217 16 8 16ZM7.20001 14.344V12.8C6.32001 12.8 5.59998 12.08 5.59998 11.2V10.4L1.76801 6.568C1.65903 7.03762 1.60265 7.51791 1.59998 8C1.59924 9.55844 2.16806 11.0634 3.1994 12.2318C4.23074 13.4001 5.65353 14.1513 7.20001 14.344ZM12.72 12.312C13.8011 11.1363 14.4008 9.59719 14.4 8C14.3985 6.72611 14.017 5.48163 13.3045 4.42565C12.592 3.36968 11.5807 2.5502 10.4 2.072V2.4C10.4 3.28 9.67999 4 8.79999 4H7.20001V5.6C7.20001 6.04 6.84002 6.4 6.40002 6.4H4.79999V8H9.59998C10.04 8 10.4 8.36 10.4 8.8V11.2H11.2C11.92 11.2 12.512 11.664 12.72 12.312Z" fill="#444746"/>
</svg>
